<?xml version="1.0" encoding="UTF-8"?>
<svg width="728px" height="728px" viewBox="0 0 728 728" version="1.1" xmlns="http://www.w3.org/2000/svg" xmlns:xlink="http://www.w3.org/1999/xlink">
    <!-- Generator: Sketch 64 (93537) - https://sketch.com -->
    <title>user (3)</title>
    <desc>Created with Sketch.</desc>
    <g id="Improvement" stroke="none" stroke-width="1" fill="none" fill-rule="evenodd">
        <g id="user-(3)">
            <circle id="Oval" fill="#FFFFFF" cx="364" cy="364" r="364"></circle>
            <path d="M396.556999,399.075235 C448.907932,399.075235 500.494243,423.215229 534.949843,474.739994 L534.949843,474.739994 L534.949843,558 L194.949843,558 L194.949843,474.739994 C229.45531,423.140662 281.055977,399.075235 333.341932,399.075235 L333.341932,399.075235 Z M396.557754,421.671173 L333.342688,421.671173 C287.091354,421.671173 244.084377,444.028348 217.61651,481.653597 L217.61651,481.653597 L217.61651,535.404062 L512.283932,535.404062 L512.283932,481.653597 C485.81531,444.028348 442.809088,421.671173 396.557754,421.671173 L396.557754,421.671173 Z M364.949843,171 C421.192643,171 466.949843,216.715012 466.949843,272.905956 C466.949843,329.0969 421.192643,374.811912 364.949843,374.811912 C308.707043,374.811912 262.949843,329.0969 262.949843,272.905956 C262.949843,216.715012 308.707043,171 364.949843,171 Z M364.949843,193.645768 C321.205443,193.645768 285.61651,229.201888 285.61651,272.905956 C285.61651,316.610024 321.205443,352.166144 364.949843,352.166144 C408.694243,352.166144 444.283177,316.610024 444.283177,272.905956 C444.283177,229.201888 408.694243,193.645768 364.949843,193.645768 Z" id="Combined-Shape" fill="#B3B3B3" fill-rule="nonzero"></path>
        </g>
    </g>
</svg>
